<svg xmlns="http://www.w3.org/2000/svg"><style>:root svg:not(:target){display:none}</style><svg viewBox="0 0 20 20" fill="none" id="sprite-chain"><path d="M11.29 8.71a3.64 3.64 0 0 0-5.15 0l-2.57 2.58a3.64 3.64 0 0 0 5.14 5.14l1.29-1.28" stroke="#000" stroke-width="1.667" stroke-linecap="round" stroke-linejoin="round"></path><path d="M8.71 11.29a3.64 3.64 0 0 0 5.15 0l2.57-2.58a3.64 3.64 0 0 0-5.14-5.14l-1.29 1.28" stroke="#000" stroke-width="1.667" stroke-linecap="round" stroke-linejoin="round"></path></svg><svg viewBox="0 0 30 30" id="sprite-github"><path fill-rule="evenodd" clip-rule="evenodd" d="M15 0a15 15 0 0 0-4.74 29.23c.75.13 1.03-.32 1.03-.71l-.02-2.8c-3.77.7-4.74-.91-5.04-1.76-.17-.43-.9-1.76-1.54-2.12-.53-.28-1.28-.97-.02-.99 1.18-.02 2.02 1.09 2.3 1.54 1.35 2.27 3.51 1.63 4.37 1.23.13-.97.53-1.63.96-2-3.34-.38-6.83-1.67-6.83-7.4 0-1.64.59-2.99 1.54-4.04a5.39 5.39 0 0 1 .15-3.97s1.26-.4 4.13 1.53a13.92 13.92 0 0 1 7.5 0c2.87-1.95 4.12-1.53 4.12-1.53.83 2.06.3 3.6.15 3.97a5.8 5.8 0 0 1 1.54 4.03c0 5.76-3.5 7.03-6.84 7.4.54.48 1 1.38 1 2.78l-.01 4.13c0 .4.28.86 1.03.71a15.03 15.03 0 0 0 10.22-14.23 15 15 0 0 0-15-15Z"></path></svg><svg viewBox="0 0 30 30" id="sprite-in"><path d="M15 .6a14.4 14.4 0 1 0 0 28.8 14.4 14.4 0 0 0 0-28.8Zm-3.53 20.37h-2.91v-9.39h2.91v9.39Zm-1.47-10.54c-.92 0-1.52-.65-1.52-1.46 0-.82.62-1.45 1.56-1.45.94 0 1.51.63 1.53 1.45 0 .81-.6 1.46-1.57 1.46Zm12.13 10.54h-2.92v-5.2c0-1.21-.42-2.03-1.48-2.03-.8 0-1.28.55-1.5 1.09-.07.19-.1.46-.1.73v5.4h-2.9v-6.38c0-1.17-.05-2.15-.09-3h2.54l.13 1.3h.06a3.38 3.38 0 0 1 2.9-1.5c1.92 0 3.36 1.28 3.36 4.04v5.55Z"></path></svg><svg viewBox="0 0 31 31" id="sprite-twitter"><path d="M15.88.88a15 15 0 1 0 0 30 15 15 0 0 0 0-30Zm7.2 11.3.01.48c0 4.92-3.74 10.58-10.58 10.58-2.1 0-4.06-.61-5.71-1.67a7.46 7.46 0 0 0 5.51-1.54c-1.63-.03-3-1.1-3.47-2.57a4.1 4.1 0 0 0 1.67-.07 3.72 3.72 0 0 1-2.97-3.65v-.05c.49.28 1.07.45 1.68.47a3.72 3.72 0 0 1-1.16-4.96 10.56 10.56 0 0 0 7.67 3.88 3.73 3.73 0 0 1 6.35-3.4 7.35 7.35 0 0 0 2.36-.9 3.7 3.7 0 0 1-1.63 2.05 7.36 7.36 0 0 0 2.14-.58 7.8 7.8 0 0 1-1.87 1.93Z"></path></svg></svg>